<mxfile host="app.diagrams.net" agent="Mozilla/5.0 (Windows NT 10.0; Win64; x64; rv:143.0) Gecko/20100101 Firefox/143.0" version="28.2.5">
  <diagram name="Страница — 1" id="sG_iUjbEBsASnnj9s_gl">
    <mxGraphModel dx="1219" dy="689" grid="1" gridSize="10" guides="1" tooltips="1" connect="1" arrows="1" fold="1" page="1" pageScale="1" pageWidth="827" pageHeight="1169" math="0" shadow="0">
      <root>
        <mxCell id="0" />
        <mxCell id="1" parent="0" />
        <mxCell id="WfLpvcYRMnezhFIoO4c2-13" value="Controllers" style="shape=folder;fontStyle=1;tabWidth=80;tabHeight=30;tabPosition=left;html=1;boundedLbl=1;whiteSpace=wrap;" vertex="1" parent="1">
          <mxGeometry x="284" y="20" width="120" height="70" as="geometry" />
        </mxCell>
        <mxCell id="WfLpvcYRMnezhFIoO4c2-14" value="DTO" style="shape=folder;fontStyle=1;tabWidth=80;tabHeight=30;tabPosition=left;html=1;boundedLbl=1;whiteSpace=wrap;" vertex="1" parent="1">
          <mxGeometry x="294" y="385" width="120" height="70" as="geometry" />
        </mxCell>
        <mxCell id="WfLpvcYRMnezhFIoO4c2-15" value="Repositories" style="shape=folder;fontStyle=1;tabWidth=80;tabHeight=30;tabPosition=left;html=1;boundedLbl=1;whiteSpace=wrap;" vertex="1" parent="1">
          <mxGeometry x="94" y="140" width="120" height="70" as="geometry" />
        </mxCell>
        <mxCell id="WfLpvcYRMnezhFIoO4c2-16" value="Events" style="shape=folder;fontStyle=1;tabWidth=80;tabHeight=30;tabPosition=left;html=1;boundedLbl=1;whiteSpace=wrap;" vertex="1" parent="1">
          <mxGeometry x="454" y="385" width="120" height="70" as="geometry" />
        </mxCell>
        <mxCell id="WfLpvcYRMnezhFIoO4c2-17" value="Exceptions" style="shape=folder;fontStyle=1;tabWidth=80;tabHeight=30;tabPosition=left;html=1;boundedLbl=1;whiteSpace=wrap;" vertex="1" parent="1">
          <mxGeometry x="614" y="385" width="120" height="70" as="geometry" />
        </mxCell>
        <mxCell id="WfLpvcYRMnezhFIoO4c2-18" value="Models" style="shape=folder;fontStyle=1;tabWidth=80;tabHeight=30;tabPosition=left;html=1;boundedLbl=1;whiteSpace=wrap;" vertex="1" parent="1">
          <mxGeometry x="94" y="260" width="120" height="70" as="geometry" />
        </mxCell>
        <mxCell id="WfLpvcYRMnezhFIoO4c2-20" value="Services" style="shape=folder;fontStyle=1;tabWidth=80;tabHeight=30;tabPosition=left;html=1;boundedLbl=1;whiteSpace=wrap;" vertex="1" parent="1">
          <mxGeometry x="304" y="160" width="120" height="70" as="geometry" />
        </mxCell>
        <mxCell id="WfLpvcYRMnezhFIoO4c2-27" value="" style="endArrow=none;html=1;endSize=12;startArrow=diamondThin;startSize=14;startFill=0;align=left;verticalAlign=bottom;rounded=0;entryX=0;entryY=0;entryDx=120;entryDy=50;entryPerimeter=0;endFill=0;exitX=0;exitY=0;exitDx=0;exitDy=50;exitPerimeter=0;" edge="1" parent="1" source="WfLpvcYRMnezhFIoO4c2-20" target="WfLpvcYRMnezhFIoO4c2-18">
          <mxGeometry x="-0.6282" y="20" relative="1" as="geometry">
            <mxPoint x="284" y="250" as="sourcePoint" />
            <mxPoint x="554" y="270" as="targetPoint" />
            <Array as="points">
              <mxPoint x="254" y="210" />
              <mxPoint x="254" y="310" />
            </Array>
            <mxPoint as="offset" />
          </mxGeometry>
        </mxCell>
        <mxCell id="WfLpvcYRMnezhFIoO4c2-28" value="" style="endArrow=none;html=1;endSize=12;startArrow=diamondThin;startSize=14;startFill=1;align=left;verticalAlign=bottom;rounded=0;exitX=0;exitY=0;exitDx=0;exitDy=30;exitPerimeter=0;entryX=0;entryY=0;entryDx=120;entryDy=50;entryPerimeter=0;endFill=0;" edge="1" parent="1" source="WfLpvcYRMnezhFIoO4c2-20" target="WfLpvcYRMnezhFIoO4c2-15">
          <mxGeometry x="-0.6282" y="20" relative="1" as="geometry">
            <mxPoint x="244" y="270" as="sourcePoint" />
            <mxPoint x="244" y="360" as="targetPoint" />
            <mxPoint as="offset" />
          </mxGeometry>
        </mxCell>
        <mxCell id="WfLpvcYRMnezhFIoO4c2-29" value="" style="endArrow=open;endSize=12;dashed=1;html=1;rounded=0;exitX=0.25;exitY=1;exitDx=0;exitDy=0;exitPerimeter=0;entryX=0;entryY=0;entryDx=40;entryDy=0;entryPerimeter=0;" edge="1" parent="1" source="WfLpvcYRMnezhFIoO4c2-20" target="WfLpvcYRMnezhFIoO4c2-14">
          <mxGeometry width="160" relative="1" as="geometry">
            <mxPoint x="394" y="240" as="sourcePoint" />
            <mxPoint x="394" y="420" as="targetPoint" />
          </mxGeometry>
        </mxCell>
        <mxCell id="WfLpvcYRMnezhFIoO4c2-30" value="" style="endArrow=open;endSize=12;dashed=1;html=1;rounded=0;exitX=0.75;exitY=1;exitDx=0;exitDy=0;exitPerimeter=0;entryX=0;entryY=0;entryDx=40;entryDy=0;entryPerimeter=0;edgeStyle=orthogonalEdgeStyle;" edge="1" parent="1" source="WfLpvcYRMnezhFIoO4c2-20" target="WfLpvcYRMnezhFIoO4c2-16">
          <mxGeometry width="160" relative="1" as="geometry">
            <mxPoint x="514" y="260" as="sourcePoint" />
            <mxPoint x="374" y="380" as="targetPoint" />
            <Array as="points">
              <mxPoint x="394" y="270" />
              <mxPoint x="494" y="270" />
            </Array>
          </mxGeometry>
        </mxCell>
        <mxCell id="WfLpvcYRMnezhFIoO4c2-31" value="" style="endArrow=open;endSize=12;dashed=1;html=1;rounded=0;exitX=0;exitY=0;exitDx=120;exitDy=50;exitPerimeter=0;entryX=0;entryY=0;entryDx=40;entryDy=0;entryPerimeter=0;edgeStyle=orthogonalEdgeStyle;" edge="1" parent="1" source="WfLpvcYRMnezhFIoO4c2-20" target="WfLpvcYRMnezhFIoO4c2-17">
          <mxGeometry width="160" relative="1" as="geometry">
            <mxPoint x="424" y="240" as="sourcePoint" />
            <mxPoint x="404" y="360" as="targetPoint" />
            <Array as="points">
              <mxPoint x="654" y="210" />
            </Array>
          </mxGeometry>
        </mxCell>
        <mxCell id="WfLpvcYRMnezhFIoO4c2-32" value="" style="endArrow=none;html=1;endSize=12;startArrow=diamondThin;startSize=14;startFill=0;align=left;verticalAlign=bottom;rounded=0;endFill=0;exitX=0.5;exitY=1;exitDx=0;exitDy=0;exitPerimeter=0;entryX=0.504;entryY=-0.002;entryDx=0;entryDy=0;entryPerimeter=0;" edge="1" parent="1">
          <mxGeometry x="-0.6282" y="20" relative="1" as="geometry">
            <mxPoint x="134" y="210" as="sourcePoint" />
            <mxPoint x="134.48000000000002" y="259.8599999999999" as="targetPoint" />
            <mxPoint as="offset" />
          </mxGeometry>
        </mxCell>
        <mxCell id="WfLpvcYRMnezhFIoO4c2-33" value="" style="endArrow=open;endSize=12;dashed=1;html=1;rounded=0;exitX=0;exitY=0;exitDx=0;exitDy=50;exitPerimeter=0;entryX=0.5;entryY=1;entryDx=0;entryDy=0;entryPerimeter=0;" edge="1" parent="1" source="WfLpvcYRMnezhFIoO4c2-14" target="WfLpvcYRMnezhFIoO4c2-18">
          <mxGeometry width="160" relative="1" as="geometry">
            <mxPoint x="324" y="280" as="sourcePoint" />
            <mxPoint x="324" y="435" as="targetPoint" />
            <Array as="points">
              <mxPoint x="154" y="435" />
            </Array>
          </mxGeometry>
        </mxCell>
        <mxCell id="WfLpvcYRMnezhFIoO4c2-37" value="" style="endArrow=none;html=1;endSize=12;startArrow=diamondThin;startSize=14;startFill=0;align=left;verticalAlign=bottom;rounded=0;endFill=0;exitX=0.5;exitY=1;exitDx=0;exitDy=0;exitPerimeter=0;entryX=0;entryY=0;entryDx=40;entryDy=0;entryPerimeter=0;" edge="1" parent="1" target="WfLpvcYRMnezhFIoO4c2-20">
          <mxGeometry x="-0.6282" y="20" relative="1" as="geometry">
            <mxPoint x="343.65999999999997" y="90" as="sourcePoint" />
            <mxPoint x="344.14" y="139.8599999999999" as="targetPoint" />
            <mxPoint as="offset" />
          </mxGeometry>
        </mxCell>
      </root>
    </mxGraphModel>
  </diagram>
</mxfile>
